<svg width="233" height="554" viewBox="0 0 233 554" fill="none" xmlns="http://www.w3.org/2000/svg">
<ellipse cx="4.16241" cy="4.44453" rx="3.83526" ry="4.12556" fill="#7854F7"/>
<ellipse cx="60.4124" cy="4.44441" rx="3.83526" ry="4.12556" fill="#7854F7"/>
<ellipse cx="116.664" cy="4.44441" rx="3.83526" ry="4.12556" fill="#7854F7"/>
<ellipse cx="172.914" cy="4.44441" rx="3.83526" ry="4.12556" fill="#7854F7"/>
<ellipse cx="229.164" cy="4.44441" rx="3.83526" ry="4.12556" fill="#7854F7"/>
<ellipse cx="4.16241" cy="64.9527" rx="3.83526" ry="4.12556" fill="#7854F7"/>
<ellipse cx="60.4124" cy="64.9527" rx="3.83526" ry="4.12556" fill="#7854F7"/>
<ellipse cx="116.664" cy="64.9527" rx="3.83526" ry="4.12556" fill="#7854F7"/>
<ellipse cx="172.914" cy="64.9527" rx="3.83526" ry="4.12556" fill="#7854F7"/>
<ellipse cx="229.164" cy="64.9527" rx="3.83526" ry="4.12556" fill="#7854F7"/>
<ellipse cx="4.16241" cy="125.461" rx="3.83526" ry="4.12556" fill="#7854F7"/>
<ellipse cx="60.4124" cy="125.461" rx="3.83526" ry="4.12556" fill="#7854F7"/>
<ellipse cx="116.664" cy="125.461" rx="3.83526" ry="4.12556" fill="#7854F7"/>
<ellipse cx="172.914" cy="125.461" rx="3.83526" ry="4.12556" fill="#7854F7"/>
<ellipse cx="229.164" cy="125.461" rx="3.83526" ry="4.12556" fill="#7854F7"/>
<ellipse cx="4.16241" cy="185.969" rx="3.83526" ry="4.12556" fill="#7854F7"/>
<ellipse cx="60.4124" cy="185.969" rx="3.83526" ry="4.12556" fill="#7854F7"/>
<ellipse cx="116.664" cy="185.969" rx="3.83526" ry="4.12556" fill="#7854F7"/>
<ellipse cx="172.914" cy="185.969" rx="3.83526" ry="4.12556" fill="#7854F7"/>
<ellipse cx="229.164" cy="185.969" rx="3.83526" ry="4.12556" fill="#7854F7"/>
<ellipse cx="4.16241" cy="246.477" rx="3.83526" ry="4.12556" fill="#7854F7"/>
<ellipse cx="60.4124" cy="246.477" rx="3.83526" ry="4.12556" fill="#7854F7"/>
<ellipse cx="116.664" cy="246.477" rx="3.83526" ry="4.12556" fill="#7854F7"/>
<ellipse cx="172.914" cy="246.477" rx="3.83526" ry="4.12556" fill="#7854F7"/>
<ellipse cx="229.164" cy="246.477" rx="3.83526" ry="4.12556" fill="#7854F7"/>
<ellipse cx="4.16241" cy="306.985" rx="3.83526" ry="4.12556" fill="#7854F7"/>
<ellipse cx="60.4124" cy="306.985" rx="3.83526" ry="4.12556" fill="#7854F7"/>
<ellipse cx="116.664" cy="306.985" rx="3.83526" ry="4.12556" fill="#7854F7"/>
<ellipse cx="172.914" cy="306.985" rx="3.83526" ry="4.12556" fill="#7854F7"/>
<ellipse cx="229.164" cy="306.985" rx="3.83526" ry="4.12556" fill="#7854F7"/>
<ellipse cx="4.16241" cy="367.494" rx="3.83526" ry="4.12556" fill="#7854F7"/>
<ellipse cx="60.4124" cy="367.494" rx="3.83526" ry="4.12556" fill="#7854F7"/>
<ellipse cx="116.664" cy="367.494" rx="3.83526" ry="4.12556" fill="#7854F7"/>
<ellipse cx="172.914" cy="367.494" rx="3.83526" ry="4.12556" fill="#7854F7"/>
<ellipse cx="229.164" cy="367.494" rx="3.83526" ry="4.12556" fill="#7854F7"/>
<ellipse cx="4.16241" cy="428.002" rx="3.83526" ry="4.12556" fill="#7854F7"/>
<ellipse cx="60.4124" cy="428.002" rx="3.83526" ry="4.12556" fill="#7854F7"/>
<ellipse cx="116.664" cy="428.002" rx="3.83526" ry="4.12556" fill="#7854F7"/>
<ellipse cx="172.914" cy="428.002" rx="3.83526" ry="4.12556" fill="#7854F7"/>
<ellipse cx="229.164" cy="428.002" rx="3.83526" ry="4.12556" fill="#7854F7"/>
<ellipse cx="4.16241" cy="488.51" rx="3.83526" ry="4.12556" fill="#7854F7"/>
<ellipse cx="60.4124" cy="488.51" rx="3.83526" ry="4.12556" fill="#7854F7"/>
<ellipse cx="116.664" cy="488.51" rx="3.83526" ry="4.12556" fill="#7854F7"/>
<ellipse cx="172.914" cy="488.51" rx="3.83526" ry="4.12556" fill="#7854F7"/>
<ellipse cx="229.164" cy="488.51" rx="3.83526" ry="4.12556" fill="#7854F7"/>
<ellipse cx="4.16241" cy="549.018" rx="3.83526" ry="4.12556" fill="#7854F7"/>
<ellipse cx="60.4124" cy="549.018" rx="3.83526" ry="4.12556" fill="#7854F7"/>
<ellipse cx="116.664" cy="549.018" rx="3.83526" ry="4.12556" fill="#7854F7"/>
<ellipse cx="172.914" cy="549.018" rx="3.83526" ry="4.12556" fill="#7854F7"/>
<ellipse cx="229.164" cy="549.018" rx="3.83526" ry="4.12556" fill="#7854F7"/>
</svg>
