<svg width="31" height="30" viewBox="0 0 31 30" fill="none" xmlns="http://www.w3.org/2000/svg">
<path d="M29.0998 13.2502C30.1922 13.2502 30.6483 11.8271 29.7609 11.1712L16.2591 1.21361C16.0663 1.07038 15.8335 0.993164 15.5944 0.993164C15.3554 0.993164 15.1226 1.07038 14.9298 1.21361L1.42794 11.1712C0.540549 11.8236 0.99662 13.2502 2.09261 13.2502H4.28104V26.656H1.73553C1.57997 26.656 1.45269 26.785 1.45269 26.9427V28.8066C1.45269 28.9643 1.57997 29.0934 1.73553 29.0934H29.4533C29.6089 29.0934 29.7362 28.9643 29.7362 28.8066V26.9427C29.7362 26.785 29.6089 26.656 29.4533 26.656H26.9078V13.2502H29.0998ZM10.963 26.656H6.82655V13.2502H10.963V26.656ZM17.645 26.656H13.5085V13.2502H17.645V26.656ZM24.3623 26.656H20.1905V13.2502H24.3623V26.656Z" fill="#0D3883"/>
</svg>
